<svg width="1810" height="549" viewBox="0 0 1810 549" fill="none" xmlns="http://www.w3.org/2000/svg">
<rect x="202.074" y="254.052" width="360.473" height="97.4705" rx="48.7352" fill="#8B5CF6"/>
<rect x="92" y="372.53" width="360.473" height="97.4705" rx="48.7352" fill="#8B5CF6"/>
<rect x="202.074" y="86" width="147.046" height="147.046" rx="73.523" fill="#8B5CF6"/>
<path d="M731.006 201.86C730.435 196.102 727.984 191.629 723.654 188.441C719.324 185.252 713.447 183.658 706.024 183.658C700.98 183.658 696.721 184.372 693.247 185.8C689.773 187.18 687.109 189.107 685.253 191.581C683.445 194.056 682.54 196.863 682.54 200.004C682.445 202.621 682.993 204.905 684.182 206.856C685.419 208.807 687.109 210.496 689.25 211.924C691.391 213.304 693.866 214.517 696.673 215.564C699.481 216.564 702.479 217.42 705.667 218.134L718.8 221.274C725.177 222.702 731.03 224.605 736.359 226.985C741.689 229.364 746.305 232.29 750.207 235.764C754.109 239.238 757.13 243.33 759.272 248.041C761.461 252.752 762.579 258.153 762.626 264.244C762.579 273.19 760.295 280.946 755.774 287.513C751.301 294.032 744.83 299.1 736.359 302.717C727.937 306.286 717.777 308.07 705.881 308.07C694.08 308.07 683.801 306.262 675.046 302.645C666.338 299.029 659.533 293.675 654.632 286.585C649.778 279.447 647.232 270.62 646.994 260.104H676.902C677.235 265.005 678.638 269.098 681.113 272.381C683.635 275.617 686.99 278.067 691.177 279.733C695.412 281.351 700.195 282.16 705.524 282.16C710.759 282.16 715.303 281.398 719.157 279.876C723.059 278.353 726.081 276.235 728.222 273.523C730.364 270.811 731.434 267.694 731.434 264.173C731.434 260.889 730.459 258.129 728.508 255.893C726.604 253.656 723.797 251.753 720.085 250.183C716.421 248.612 711.924 247.185 706.595 245.9L690.678 241.903C678.353 238.905 668.622 234.218 661.484 227.841C654.346 221.465 650.801 212.876 650.849 202.074C650.801 193.223 653.157 185.49 657.915 178.876C662.721 172.262 669.312 167.099 677.687 163.387C686.062 159.675 695.579 157.82 706.238 157.82C717.087 157.82 726.557 159.675 734.646 163.387C742.783 167.099 749.112 172.262 753.633 178.876C758.153 185.49 760.485 193.152 760.628 201.86H731.006ZM818.31 308.141C807.08 308.141 797.421 305.762 789.331 301.004C781.289 296.197 775.103 289.536 770.773 281.018C766.49 272.5 764.349 262.697 764.349 251.61C764.349 240.38 766.514 230.53 770.844 222.06C775.222 213.542 781.432 206.904 789.474 202.145C797.516 197.339 807.08 194.936 818.168 194.936C827.732 194.936 836.107 196.673 843.293 200.147C850.478 203.62 856.164 208.498 860.352 214.779C864.539 221.06 866.847 228.436 867.276 236.906H838.582C837.773 231.434 835.631 227.032 832.158 223.701C828.732 220.323 824.235 218.634 818.667 218.634C813.956 218.634 809.84 219.918 806.319 222.488C802.845 225.01 800.133 228.698 798.182 233.551C796.231 238.405 795.255 244.282 795.255 251.182C795.255 258.177 796.207 264.125 798.11 269.026C800.061 273.928 802.798 277.663 806.319 280.233C809.84 282.802 813.956 284.087 818.667 284.087C822.141 284.087 825.258 283.373 828.018 281.946C830.825 280.518 833.133 278.448 834.941 275.736C836.797 272.976 838.011 269.669 838.582 265.814H867.276C866.8 274.189 864.516 281.565 860.423 287.941C856.379 294.27 850.787 299.219 843.65 302.788C836.512 306.357 828.065 308.141 818.31 308.141ZM903.081 242.616V306H872.674V159.818H902.224V215.707H903.509C905.984 209.235 909.981 204.168 915.501 200.504C921.021 196.792 927.944 194.936 936.272 194.936C943.885 194.936 950.523 196.602 956.186 199.933C961.896 203.216 966.322 207.951 969.462 214.137C972.65 220.275 974.221 227.627 974.173 236.192V306H943.766V241.617C943.814 234.86 942.101 229.602 938.627 225.843C935.201 222.083 930.395 220.204 924.209 220.204C920.069 220.204 916.405 221.084 913.217 222.845C910.076 224.605 907.601 227.175 905.793 230.554C904.033 233.885 903.128 237.906 903.081 242.616ZM1034 308.141C1022.72 308.141 1013.01 305.857 1004.87 301.289C996.785 296.673 990.552 290.154 986.174 281.732C981.796 273.261 979.607 263.245 979.607 251.681C979.607 240.404 981.796 230.506 986.174 221.988C990.552 213.471 996.714 206.832 1004.66 202.074C1012.66 197.315 1022.03 194.936 1032.78 194.936C1040.02 194.936 1046.75 196.102 1052.98 198.434C1059.26 200.718 1064.74 204.168 1069.4 208.783C1074.11 213.399 1077.78 219.205 1080.39 226.2C1083.01 233.147 1084.32 241.284 1084.32 250.611V258.962H991.741V240.118H1055.7C1055.7 235.74 1054.74 231.862 1052.84 228.484C1050.94 225.105 1048.3 222.464 1044.92 220.561C1041.59 218.61 1037.71 217.634 1033.28 217.634C1028.67 217.634 1024.58 218.705 1021.01 220.846C1017.49 222.94 1014.73 225.771 1012.73 229.34C1010.73 232.862 1009.7 236.787 1009.66 241.118V259.033C1009.66 264.458 1010.66 269.145 1012.66 273.095C1014.7 277.044 1017.58 280.09 1021.29 282.231C1025 284.373 1029.41 285.443 1034.5 285.443C1037.88 285.443 1040.97 284.967 1043.78 284.016C1046.58 283.064 1048.99 281.636 1050.99 279.733C1052.98 277.83 1054.51 275.498 1055.55 272.738L1083.68 274.594C1082.25 281.351 1079.32 287.251 1074.9 292.295C1070.52 297.292 1064.86 301.194 1057.91 304.001C1051.01 306.761 1043.04 308.141 1034 308.141ZM1130.49 307.784C1122.16 307.784 1114.62 305.643 1107.86 301.36C1101.16 297.03 1095.83 290.678 1091.88 282.303C1087.97 273.88 1086.02 263.554 1086.02 251.325C1086.02 238.762 1088.05 228.317 1092.09 219.99C1096.13 211.615 1101.51 205.357 1108.22 201.217C1114.98 197.03 1122.38 194.936 1130.42 194.936C1136.56 194.936 1141.67 195.983 1145.77 198.077C1149.91 200.123 1153.24 202.692 1155.76 205.786C1158.33 208.831 1160.28 211.829 1161.61 214.779H1162.54V159.818H1192.88V306H1162.9V288.441H1161.61C1160.18 291.487 1158.16 294.508 1155.55 297.506C1152.98 300.456 1149.62 302.907 1145.48 304.858C1141.39 306.809 1136.39 307.784 1130.49 307.784ZM1140.13 283.587C1145.03 283.587 1149.17 282.255 1152.55 279.59C1155.97 276.878 1158.59 273.095 1160.4 268.241C1162.25 263.387 1163.18 257.701 1163.18 251.182C1163.18 244.663 1162.28 239 1160.47 234.194C1158.66 229.388 1156.04 225.676 1152.62 223.059C1149.19 220.442 1145.03 219.133 1140.13 219.133C1135.13 219.133 1130.92 220.489 1127.49 223.202C1124.07 225.914 1121.47 229.673 1119.71 234.479C1117.95 239.286 1117.07 244.853 1117.07 251.182C1117.07 257.558 1117.95 263.197 1119.71 268.098C1121.52 272.952 1124.11 276.759 1127.49 279.519C1130.92 282.231 1135.13 283.587 1140.13 283.587ZM1274.11 259.319V196.364H1304.52V306H1275.33V286.086H1274.18C1271.71 292.51 1267.59 297.673 1261.84 301.575C1256.13 305.477 1249.15 307.428 1240.92 307.428C1233.59 307.428 1227.15 305.762 1221.58 302.431C1216.01 299.1 1211.66 294.365 1208.52 288.227C1205.42 282.088 1203.85 274.737 1203.81 266.171V196.364H1234.21V260.746C1234.26 267.218 1236 272.333 1239.42 276.093C1242.85 279.852 1247.44 281.732 1253.2 281.732C1256.86 281.732 1260.29 280.899 1263.48 279.233C1266.67 277.52 1269.24 274.998 1271.19 271.667C1273.19 268.336 1274.16 264.22 1274.11 259.319ZM1345.18 159.818V306H1314.77V159.818H1345.18ZM1405.43 308.141C1394.15 308.141 1384.45 305.857 1376.31 301.289C1368.22 296.673 1361.99 290.154 1357.61 281.732C1353.23 273.261 1351.04 263.245 1351.04 251.681C1351.04 240.404 1353.23 230.506 1357.61 221.988C1361.99 213.471 1368.15 206.832 1376.09 202.074C1384.09 197.315 1393.46 194.936 1404.22 194.936C1411.45 194.936 1418.18 196.102 1424.42 198.434C1430.7 200.718 1436.17 204.168 1440.83 208.783C1445.55 213.399 1449.21 219.205 1451.83 226.2C1454.44 233.147 1455.75 241.284 1455.75 250.611V258.962H1363.18V240.118H1427.13C1427.13 235.74 1426.18 231.862 1424.27 228.484C1422.37 225.105 1419.73 222.464 1416.35 220.561C1413.02 218.61 1409.14 217.634 1404.72 217.634C1400.1 217.634 1396.01 218.705 1392.44 220.846C1388.92 222.94 1386.16 225.771 1384.16 229.34C1382.16 232.862 1381.14 236.787 1381.09 241.118V259.033C1381.09 264.458 1382.09 269.145 1384.09 273.095C1386.14 277.044 1389.01 280.09 1392.73 282.231C1396.44 284.373 1400.84 285.443 1405.93 285.443C1409.31 285.443 1412.4 284.967 1415.21 284.016C1418.02 283.064 1420.42 281.636 1422.42 279.733C1424.42 277.83 1425.94 275.498 1426.99 272.738L1455.11 274.594C1453.68 281.351 1450.76 287.251 1446.33 292.295C1441.95 297.292 1436.29 301.194 1429.34 304.001C1422.44 306.761 1414.47 308.141 1405.43 308.141ZM1462.1 306V159.818H1519.77C1530.86 159.818 1540.3 161.936 1548.11 166.171C1555.91 170.358 1561.86 176.187 1565.95 183.658C1570.09 191.082 1572.16 199.647 1572.16 209.354C1572.16 219.062 1570.07 227.627 1565.88 235.05C1561.69 242.474 1555.63 248.255 1547.68 252.395C1539.78 256.535 1530.21 258.605 1518.98 258.605H1482.22V233.837H1513.99C1519.94 233.837 1524.84 232.814 1528.69 230.768C1532.59 228.674 1535.5 225.795 1537.4 222.131C1539.35 218.419 1540.33 214.161 1540.33 209.354C1540.33 204.501 1539.35 200.266 1537.4 196.649C1535.5 192.985 1532.59 190.154 1528.69 188.155C1524.79 186.109 1519.84 185.086 1513.85 185.086H1493V306H1462.1ZM1605.91 308.07C1598.92 308.07 1592.69 306.857 1587.21 304.43C1581.74 301.955 1577.41 298.315 1574.22 293.509C1571.08 288.655 1569.51 282.612 1569.51 275.379C1569.51 269.288 1570.63 264.173 1572.87 260.033C1575.1 255.893 1578.15 252.562 1582 250.04C1585.86 247.518 1590.23 245.614 1595.14 244.33C1600.09 243.045 1605.27 242.141 1610.7 241.617C1617.07 240.951 1622.21 240.332 1626.11 239.761C1630.02 239.143 1632.85 238.239 1634.61 237.049C1636.37 235.859 1637.25 234.099 1637.25 231.767V231.339C1637.25 226.818 1635.82 223.321 1632.97 220.846C1630.16 218.372 1626.16 217.135 1620.97 217.135C1615.5 217.135 1611.15 218.348 1607.91 220.775C1604.68 223.154 1602.54 226.152 1601.49 229.768L1573.37 227.484C1574.79 220.822 1577.6 215.065 1581.79 210.211C1585.98 205.31 1591.38 201.55 1597.99 198.933C1604.65 196.268 1612.36 194.936 1621.12 194.936C1627.21 194.936 1633.04 195.65 1638.61 197.077C1644.22 198.505 1649.19 200.718 1653.52 203.716C1657.9 206.713 1661.35 210.568 1663.87 215.279C1666.4 219.942 1667.66 225.533 1667.66 232.053V306H1638.82V290.797H1637.96C1636.2 294.223 1633.85 297.244 1630.9 299.862C1627.95 302.431 1624.4 304.453 1620.26 305.929C1616.12 307.356 1611.34 308.07 1605.91 308.07ZM1614.62 287.085C1619.1 287.085 1623.04 286.205 1626.47 284.444C1629.9 282.636 1632.59 280.209 1634.54 277.163C1636.49 274.118 1637.46 270.668 1637.46 266.814V255.179C1636.51 255.798 1635.2 256.369 1633.54 256.892C1631.92 257.368 1630.09 257.82 1628.04 258.248C1626 258.629 1623.95 258.986 1621.9 259.319C1619.86 259.604 1618 259.866 1616.34 260.104C1612.77 260.627 1609.65 261.46 1606.98 262.602C1604.32 263.744 1602.25 265.291 1600.78 267.242C1599.3 269.145 1598.56 271.525 1598.56 274.38C1598.56 278.52 1600.06 281.684 1603.06 283.873C1606.1 286.014 1609.96 287.085 1614.62 287.085ZM1707.58 159.818V306H1677.18V159.818H1707.58Z" fill="black"/>
<path d="M645.182 393V346.455H672.114V350.273H649.432V367.795H670V371.614H649.432V393H645.182ZM688.367 393.727C685.351 393.727 682.685 392.962 680.367 391.432C678.064 389.902 676.261 387.788 674.958 385.091C673.654 382.379 673.003 379.25 673.003 375.705C673.003 372.129 673.654 368.985 674.958 366.273C676.261 363.545 678.064 361.424 680.367 359.909C682.685 358.379 685.351 357.614 688.367 357.614C691.382 357.614 694.041 358.379 696.344 359.909C698.647 361.439 700.45 363.561 701.753 366.273C703.071 368.985 703.73 372.129 703.73 375.705C703.73 379.25 703.079 382.379 701.776 385.091C700.473 387.788 698.662 389.902 696.344 391.432C694.041 392.962 691.382 393.727 688.367 393.727ZM688.367 390.023C690.791 390.023 692.844 389.371 694.526 388.068C696.208 386.765 697.48 385.03 698.344 382.864C699.223 380.697 699.662 378.311 699.662 375.705C699.662 373.098 699.223 370.705 698.344 368.523C697.48 366.341 696.208 364.591 694.526 363.273C692.844 361.955 690.791 361.295 688.367 361.295C685.958 361.295 683.904 361.955 682.208 363.273C680.526 364.591 679.245 366.341 678.367 368.523C677.503 370.705 677.071 373.098 677.071 375.705C677.071 378.311 677.503 380.697 678.367 382.864C679.245 385.03 680.526 386.765 682.208 388.068C683.889 389.371 685.942 390.023 688.367 390.023ZM708.131 393V358.091H712.063V363.455H712.358C713.055 361.697 714.267 360.28 715.995 359.205C717.737 358.114 719.707 357.568 721.904 357.568C722.237 357.568 722.608 357.576 723.017 357.591C723.426 357.606 723.767 357.621 724.04 357.636V361.75C723.858 361.72 723.54 361.674 723.085 361.614C722.631 361.553 722.138 361.523 721.608 361.523C719.79 361.523 718.169 361.909 716.745 362.682C715.335 363.439 714.222 364.492 713.404 365.841C712.585 367.189 712.176 368.727 712.176 370.455V393H708.131ZM740.824 346.455H745.733L762.62 387H763.029L779.915 346.455H784.824V393H780.824V355.432H780.461L764.756 393H760.893L745.188 355.432H744.824V393H740.824V346.455ZM814.06 379.659V358.091H818.106V393H814.06V387.205H813.742C812.924 388.992 811.628 390.485 809.856 391.682C808.083 392.864 805.916 393.455 803.356 393.455C801.128 393.455 799.151 392.97 797.424 392C795.697 391.015 794.341 389.576 793.356 387.682C792.371 385.788 791.878 383.462 791.878 380.705V358.091H795.924V380.455C795.924 383.182 796.727 385.379 798.333 387.045C799.939 388.697 802 389.523 804.515 389.523C806.091 389.523 807.606 389.144 809.06 388.386C810.515 387.629 811.712 386.523 812.651 385.068C813.591 383.598 814.06 381.795 814.06 379.659ZM828.381 346.455V393H824.336V346.455H828.381ZM844.356 393.795C842.25 393.795 840.326 393.386 838.583 392.568C836.841 391.735 835.454 390.538 834.424 388.977C833.394 387.402 832.879 385.492 832.879 383.25C832.879 381.523 833.204 380.068 833.856 378.886C834.507 377.705 835.432 376.735 836.629 375.977C837.826 375.22 839.242 374.621 840.879 374.182C842.515 373.742 844.318 373.402 846.288 373.159C848.242 372.917 849.894 372.705 851.242 372.523C852.606 372.341 853.644 372.053 854.356 371.659C855.068 371.265 855.424 370.629 855.424 369.75V368.932C855.424 366.553 854.712 364.682 853.288 363.318C851.879 361.939 849.848 361.25 847.197 361.25C844.682 361.25 842.629 361.803 841.038 362.909C839.462 364.015 838.356 365.318 837.72 366.818L833.879 365.432C834.667 363.523 835.757 362 837.151 360.864C838.545 359.712 840.106 358.886 841.833 358.386C843.56 357.871 845.31 357.614 847.083 357.614C848.417 357.614 849.803 357.788 851.242 358.136C852.697 358.485 854.045 359.091 855.288 359.955C856.53 360.803 857.538 361.992 858.31 363.523C859.083 365.038 859.47 366.962 859.47 369.295V393H855.424V387.477H855.174C854.689 388.508 853.97 389.508 853.015 390.477C852.06 391.447 850.863 392.242 849.424 392.864C847.985 393.485 846.295 393.795 844.356 393.795ZM844.901 390.091C847.053 390.091 848.917 389.614 850.492 388.659C852.068 387.705 853.28 386.439 854.129 384.864C854.992 383.273 855.424 381.523 855.424 379.614V374.568C855.121 374.856 854.613 375.114 853.901 375.341C853.204 375.568 852.394 375.773 851.47 375.955C850.56 376.121 849.651 376.265 848.742 376.386C847.833 376.508 847.015 376.614 846.288 376.705C844.318 376.947 842.636 377.326 841.242 377.841C839.848 378.356 838.78 379.068 838.038 379.977C837.295 380.871 836.924 382.023 836.924 383.432C836.924 385.553 837.682 387.197 839.197 388.364C840.712 389.515 842.613 390.091 844.901 390.091ZM873.501 393L862.955 358.091H867.228L875.501 386.886H875.796L884.046 358.091H888.342L896.524 386.818H896.842L905.115 358.091H909.387L898.842 393H894.66L886.387 364.386H885.955L877.683 393H873.501ZM922.521 393.795C920.415 393.795 918.491 393.386 916.748 392.568C915.006 391.735 913.619 390.538 912.589 388.977C911.559 387.402 911.044 385.492 911.044 383.25C911.044 381.523 911.369 380.068 912.021 378.886C912.672 377.705 913.597 376.735 914.794 375.977C915.991 375.22 917.407 374.621 919.044 374.182C920.68 373.742 922.483 373.402 924.453 373.159C926.407 372.917 928.059 372.705 929.407 372.523C930.771 372.341 931.809 372.053 932.521 371.659C933.233 371.265 933.589 370.629 933.589 369.75V368.932C933.589 366.553 932.877 364.682 931.453 363.318C930.044 361.939 928.013 361.25 925.362 361.25C922.847 361.25 920.794 361.803 919.203 362.909C917.627 364.015 916.521 365.318 915.885 366.818L912.044 365.432C912.832 363.523 913.922 362 915.316 360.864C916.71 359.712 918.271 358.886 919.998 358.386C921.725 357.871 923.475 357.614 925.248 357.614C926.582 357.614 927.968 357.788 929.407 358.136C930.862 358.485 932.21 359.091 933.453 359.955C934.695 360.803 935.703 361.992 936.475 363.523C937.248 365.038 937.635 366.962 937.635 369.295V393H933.589V387.477H933.339C932.854 388.508 932.135 389.508 931.18 390.477C930.225 391.447 929.028 392.242 927.589 392.864C926.15 393.485 924.46 393.795 922.521 393.795ZM923.066 390.091C925.218 390.091 927.082 389.614 928.657 388.659C930.233 387.705 931.445 386.439 932.294 384.864C933.157 383.273 933.589 381.523 933.589 379.614V374.568C933.286 374.856 932.778 375.114 932.066 375.341C931.369 375.568 930.559 375.773 929.635 375.955C928.725 376.121 927.816 376.265 926.907 376.386C925.998 376.508 925.18 376.614 924.453 376.705C922.483 376.947 920.801 377.326 919.407 377.841C918.013 378.356 916.945 379.068 916.203 379.977C915.46 380.871 915.089 382.023 915.089 383.432C915.089 385.553 915.847 387.197 917.362 388.364C918.877 389.515 920.778 390.091 923.066 390.091ZM943.916 393V358.091H947.848V363.455H948.143C948.84 361.697 950.052 360.28 951.78 359.205C953.522 358.114 955.492 357.568 957.689 357.568C958.022 357.568 958.393 357.576 958.802 357.591C959.211 357.606 959.552 357.621 959.825 357.636V361.75C959.643 361.72 959.325 361.674 958.87 361.614C958.416 361.553 957.923 361.523 957.393 361.523C955.575 361.523 953.954 361.909 952.53 362.682C951.12 363.439 950.007 364.492 949.189 365.841C948.37 367.189 947.961 368.727 947.961 370.455V393H943.916ZM962.248 393V358.091H966.18V363.455H966.544C967.241 361.652 968.4 360.235 970.021 359.205C971.658 358.159 973.62 357.636 975.908 357.636C978.317 357.636 980.294 358.205 981.839 359.341C983.4 360.462 984.567 362.008 985.339 363.977H985.635C986.423 362.038 987.703 360.5 989.476 359.364C991.264 358.212 993.43 357.636 995.976 357.636C999.218 357.636 1001.78 358.659 1003.66 360.705C1005.54 362.735 1006.48 365.705 1006.48 369.614V393H1002.43V369.614C1002.43 366.856 1001.73 364.788 1000.32 363.409C998.908 362.03 997.051 361.341 994.748 361.341C992.082 361.341 990.029 362.159 988.589 363.795C987.15 365.432 986.43 367.508 986.43 370.023V393H982.294V369.25C982.294 366.886 981.635 364.977 980.317 363.523C978.998 362.068 977.142 361.341 974.748 361.341C973.142 361.341 971.695 361.735 970.408 362.523C969.135 363.311 968.127 364.409 967.385 365.818C966.658 367.212 966.294 368.818 966.294 370.636V393H962.248ZM1022.46 393.795C1020.35 393.795 1018.43 393.386 1016.68 392.568C1014.94 391.735 1013.55 390.538 1012.52 388.977C1011.49 387.402 1010.98 385.492 1010.98 383.25C1010.98 381.523 1011.3 380.068 1011.96 378.886C1012.61 377.705 1013.53 376.735 1014.73 375.977C1015.93 375.22 1017.34 374.621 1018.98 374.182C1020.61 373.742 1022.42 373.402 1024.39 373.159C1026.34 372.917 1027.99 372.705 1029.34 372.523C1030.71 372.341 1031.74 372.053 1032.46 371.659C1033.17 371.265 1033.52 370.629 1033.52 369.75V368.932C1033.52 366.553 1032.81 364.682 1031.39 363.318C1029.98 361.939 1027.95 361.25 1025.3 361.25C1022.78 361.25 1020.73 361.803 1019.14 362.909C1017.56 364.015 1016.46 365.318 1015.82 366.818L1011.98 365.432C1012.77 363.523 1013.86 362 1015.25 360.864C1016.65 359.712 1018.21 358.886 1019.93 358.386C1021.66 357.871 1023.41 357.614 1025.18 357.614C1026.52 357.614 1027.9 357.788 1029.34 358.136C1030.8 358.485 1032.15 359.091 1033.39 359.955C1034.63 360.803 1035.64 361.992 1036.41 363.523C1037.18 365.038 1037.57 366.962 1037.57 369.295V393H1033.52V387.477H1033.27C1032.79 388.508 1032.07 389.508 1031.11 390.477C1030.16 391.447 1028.96 392.242 1027.52 392.864C1026.08 393.485 1024.4 393.795 1022.46 393.795ZM1023 390.091C1025.15 390.091 1027.02 389.614 1028.59 388.659C1030.17 387.705 1031.38 386.439 1032.23 384.864C1033.09 383.273 1033.52 381.523 1033.52 379.614V374.568C1033.22 374.856 1032.71 375.114 1032 375.341C1031.3 375.568 1030.49 375.773 1029.57 375.955C1028.66 376.121 1027.75 376.265 1026.84 376.386C1025.93 376.508 1025.11 376.614 1024.39 376.705C1022.42 376.947 1020.74 377.326 1019.34 377.841C1017.95 378.356 1016.88 379.068 1016.14 379.977C1015.4 380.871 1015.02 382.023 1015.02 383.432C1015.02 385.553 1015.78 387.197 1017.3 388.364C1018.81 389.515 1020.71 390.091 1023 390.091ZM1047.9 371.182V393H1043.85V358.091H1047.78V363.568H1048.15C1048.96 361.78 1050.24 360.348 1051.96 359.273C1053.71 358.182 1055.86 357.636 1058.42 357.636C1060.77 357.636 1062.83 358.129 1064.6 359.114C1066.39 360.083 1067.78 361.515 1068.76 363.409C1069.76 365.303 1070.26 367.629 1070.26 370.386V393H1066.21V370.636C1066.21 367.773 1065.41 365.508 1063.81 363.841C1062.21 362.174 1060.08 361.341 1057.4 361.341C1055.56 361.341 1053.93 361.735 1052.51 362.523C1051.09 363.311 1049.96 364.447 1049.12 365.932C1048.31 367.402 1047.9 369.152 1047.9 371.182ZM1121.82 346.455H1126.07V377.273C1126.07 380.439 1125.32 383.273 1123.84 385.773C1122.35 388.258 1120.29 390.22 1117.64 391.659C1115 393.083 1111.93 393.795 1108.43 393.795C1104.95 393.795 1101.88 393.076 1099.23 391.636C1096.57 390.197 1094.51 388.235 1093.02 385.75C1091.54 383.265 1090.79 380.439 1090.79 377.273V346.455H1095.04V376.977C1095.04 379.447 1095.6 381.652 1096.7 383.591C1097.81 385.515 1099.36 387.03 1101.36 388.136C1103.38 389.242 1105.73 389.795 1108.43 389.795C1111.13 389.795 1113.48 389.242 1115.5 388.136C1117.51 387.03 1119.07 385.515 1120.16 383.591C1121.26 381.652 1121.82 379.447 1121.82 376.977V346.455ZM1137.14 371.182V393H1133.1V358.091H1137.03V363.568H1137.39C1138.21 361.78 1139.48 360.348 1141.21 359.273C1142.95 358.182 1145.11 357.636 1147.67 357.636C1150.02 357.636 1152.08 358.129 1153.85 359.114C1155.64 360.083 1157.02 361.515 1158.01 363.409C1159.01 365.303 1159.51 367.629 1159.51 370.386V393H1155.46V370.636C1155.46 367.773 1154.66 365.508 1153.05 363.841C1151.46 362.174 1149.33 361.341 1146.64 361.341C1144.81 361.341 1143.18 361.735 1141.76 362.523C1140.33 363.311 1139.2 364.447 1138.37 365.932C1137.55 367.402 1137.14 369.152 1137.14 371.182ZM1165.73 393V358.091H1169.79V393H1165.73ZM1167.79 352.091C1166.96 352.091 1166.25 351.811 1165.66 351.25C1165.07 350.674 1164.77 349.985 1164.77 349.182C1164.77 348.379 1165.07 347.697 1165.66 347.136C1166.25 346.561 1166.96 346.273 1167.79 346.273C1168.63 346.273 1169.34 346.561 1169.93 347.136C1170.52 347.697 1170.82 348.379 1170.82 349.182C1170.82 349.985 1170.52 350.674 1169.93 351.25C1169.34 351.811 1168.63 352.091 1167.79 352.091ZM1203.04 358.091L1190.29 393H1185.97L1173.22 358.091H1177.6L1187.97 387.659H1188.29L1198.65 358.091H1203.04ZM1219.33 393.727C1216.08 393.727 1213.26 392.97 1210.88 391.455C1208.5 389.924 1206.66 387.811 1205.36 385.114C1204.07 382.402 1203.43 379.28 1203.43 375.75C1203.43 372.235 1204.07 369.114 1205.36 366.386C1206.66 363.644 1208.46 361.5 1210.74 359.955C1213.05 358.394 1215.71 357.614 1218.72 357.614C1220.61 357.614 1222.44 357.962 1224.2 358.659C1225.96 359.341 1227.53 360.394 1228.93 361.818C1230.33 363.227 1231.45 365.008 1232.27 367.159C1233.08 369.295 1233.49 371.826 1233.49 374.75V376.75H1206.22V373.182H1229.36C1229.36 370.939 1228.9 368.924 1227.99 367.136C1227.1 365.333 1225.85 363.909 1224.24 362.864C1222.65 361.818 1220.81 361.295 1218.72 361.295C1216.51 361.295 1214.56 361.886 1212.88 363.068C1211.2 364.25 1209.88 365.811 1208.93 367.75C1207.99 369.689 1207.51 371.811 1207.49 374.114V376.25C1207.49 379.023 1207.97 381.447 1208.93 383.523C1209.9 385.583 1211.27 387.182 1213.04 388.318C1214.81 389.455 1216.91 390.023 1219.33 390.023C1220.99 390.023 1222.43 389.765 1223.68 389.25C1224.93 388.735 1225.99 388.045 1226.83 387.182C1227.7 386.303 1228.35 385.341 1228.79 384.295L1232.63 385.545C1232.1 387.015 1231.23 388.371 1230.02 389.614C1228.82 390.856 1227.32 391.856 1225.52 392.614C1223.73 393.356 1221.67 393.727 1219.33 393.727ZM1237.93 393V358.091H1241.86V363.455H1242.16C1242.85 361.697 1244.06 360.28 1245.79 359.205C1247.53 358.114 1249.5 357.568 1251.7 357.568C1252.03 357.568 1252.41 357.576 1252.81 357.591C1253.22 357.606 1253.56 357.621 1253.84 357.636V361.75C1253.66 361.72 1253.34 361.674 1252.88 361.614C1252.43 361.553 1251.94 361.523 1251.41 361.523C1249.59 361.523 1247.97 361.909 1246.54 362.682C1245.13 363.439 1244.02 364.492 1243.2 365.841C1242.38 367.189 1241.97 368.727 1241.97 370.455V393H1237.93ZM1279.72 365.75L1276.01 366.795C1275.65 365.75 1275.13 364.803 1274.47 363.955C1273.8 363.106 1272.93 362.432 1271.85 361.932C1270.79 361.432 1269.47 361.182 1267.9 361.182C1265.53 361.182 1263.59 361.742 1262.08 362.864C1260.56 363.985 1259.81 365.432 1259.81 367.205C1259.81 368.705 1260.32 369.924 1261.35 370.864C1262.4 371.788 1264 372.523 1266.17 373.068L1271.44 374.364C1274.37 375.076 1276.56 376.205 1278.01 377.75C1279.48 379.295 1280.22 381.235 1280.22 383.568C1280.22 385.538 1279.67 387.288 1278.58 388.818C1277.49 390.348 1275.97 391.553 1274.01 392.432C1272.07 393.295 1269.82 393.727 1267.26 393.727C1263.85 393.727 1261.04 392.962 1258.83 391.432C1256.62 389.886 1255.2 387.659 1254.58 384.75L1258.47 383.795C1258.97 385.871 1259.94 387.439 1261.4 388.5C1262.87 389.561 1264.8 390.091 1267.19 390.091C1269.87 390.091 1272.02 389.492 1273.62 388.295C1275.23 387.083 1276.03 385.568 1276.03 383.75C1276.03 382.341 1275.56 381.159 1274.62 380.205C1273.69 379.235 1272.26 378.523 1270.35 378.068L1264.65 376.705C1261.62 375.977 1259.37 374.826 1257.92 373.25C1256.47 371.674 1255.74 369.72 1255.74 367.386C1255.74 365.462 1256.26 363.773 1257.31 362.318C1258.35 360.848 1259.79 359.697 1261.62 358.864C1263.46 358.03 1265.55 357.614 1267.9 357.614C1271.09 357.614 1273.65 358.341 1275.56 359.795C1277.48 361.235 1278.87 363.22 1279.72 365.75ZM1284.64 393V358.091H1288.71V393H1284.64ZM1286.71 352.091C1285.87 352.091 1285.16 351.811 1284.57 351.25C1283.98 350.674 1283.68 349.985 1283.68 349.182C1283.68 348.379 1283.98 347.697 1284.57 347.136C1285.16 346.561 1285.87 346.273 1286.71 346.273C1287.54 346.273 1288.25 346.561 1288.84 347.136C1289.43 347.697 1289.73 348.379 1289.73 349.182C1289.73 349.985 1289.43 350.674 1288.84 351.25C1288.25 351.811 1287.54 352.091 1286.71 352.091ZM1308.68 358.091V361.614H1292.02V358.091H1308.68ZM1297.22 349.727H1301.29V383.886C1301.29 385.341 1301.54 386.485 1302.04 387.318C1302.54 388.136 1303.19 388.72 1303.99 389.068C1304.8 389.402 1305.65 389.568 1306.56 389.568C1307.09 389.568 1307.55 389.538 1307.93 389.477C1308.3 389.402 1308.64 389.326 1308.93 389.25L1309.79 392.909C1309.4 393.061 1308.91 393.197 1308.34 393.318C1307.76 393.455 1307.05 393.523 1306.2 393.523C1304.71 393.523 1303.28 393.197 1301.9 392.545C1300.54 391.894 1299.42 390.924 1298.54 389.636C1297.66 388.348 1297.22 386.75 1297.22 384.841V349.727ZM1316.2 406.091C1315.4 406.091 1314.65 406.015 1313.95 405.864C1313.25 405.712 1312.7 405.545 1312.29 405.364L1313.38 401.795C1314.76 402.22 1315.99 402.371 1317.07 402.25C1318.14 402.144 1319.1 401.659 1319.93 400.795C1320.76 399.947 1321.5 398.644 1322.16 396.886L1323.43 393.341L1310.59 358.091H1314.97L1325.34 387.659H1325.66L1336.02 358.091H1340.41L1325.63 398.523C1325.01 400.205 1324.25 401.606 1323.34 402.727C1322.43 403.864 1321.38 404.705 1320.18 405.25C1319 405.811 1317.67 406.091 1316.2 406.091Z" fill="black"/>
</svg>
